<?xml version="1.0" encoding="UTF-8" standalone="no"?><svg xmlns="http://www.w3.org/2000/svg" xmlns:xlink="http://www.w3.org/1999/xlink" contentScriptType="application/ecmascript" contentStyleType="text/css" height="302px" preserveAspectRatio="none" style="width:673px;height:302px;" version="1.1" viewBox="0 0 673 302" width="673px" zoomAndPan="magnify"><defs><filter height="300%" id="f6mxc7ais32ws" width="300%" x="-1" y="-1"><feGaussianBlur result="blurOut" stdDeviation="2.0"/><feColorMatrix in="blurOut" result="blurOut2" type="matrix" values="0 0 0 0 0 0 0 0 0 0 0 0 0 0 0 0 0 0 .4 0"/><feOffset dx="4.0" dy="4.0" in="blurOut2" result="blurOut3"/><feBlend in="SourceGraphic" in2="blurOut3" mode="normal"/></filter></defs><g><text fill="#000000" font-family="sans-serif" font-size="18" font-weight="bold" lengthAdjust="spacingAndGlyphs" textLength="290" x="195" y="16.708">Libmicrohttpd wrapper class</text><!--MD5=[4ef80439e1ef409f8f3a0ec422262701]
cluster server--><polygon fill="#FFFFFF" filter="url(#f6mxc7ais32ws)" points="208.5,156.9531,266.5,156.9531,273.5,179.25,428.5,179.25,428.5,290.9531,208.5,290.9531,208.5,156.9531" style="stroke: #000000; stroke-width: 1.5;"/><line style="stroke: #000000; stroke-width: 1.5;" x1="208.5" x2="273.5" y1="179.25" y2="179.25"/><text fill="#000000" font-family="sans-serif" font-size="14" font-weight="bold" lengthAdjust="spacingAndGlyphs" textLength="52" x="212.5" y="171.9482">server</text><!--MD5=[432216b430a913c0c278fa18c40328bb]
class server.Server--><rect fill="#FEFECE" filter="url(#f6mxc7ais32ws)" height="99.2188" id="server.Server" style="stroke: #A80036; stroke-width: 1.5;" width="204" x="216.5" y="183.9531"/><ellipse cx="294.25" cy="199.9531" fill="#ADD1B2" rx="11" ry="11" style="stroke: #A80036; stroke-width: 1.0;"/><path d="M297.2188,205.5938 Q296.6406,205.8906 296,206.0313 Q295.3594,206.1875 294.6563,206.1875 Q292.1563,206.1875 290.8281,204.5469 Q289.5156,202.8906 289.5156,199.7656 Q289.5156,196.6406 290.8281,194.9844 Q292.1563,193.3281 294.6563,193.3281 Q295.3594,193.3281 296,193.4844 Q296.6563,193.6406 297.2188,193.9375 L297.2188,196.6563 Q296.5938,196.0781 296,195.8125 Q295.4063,195.5313 294.7813,195.5313 Q293.4375,195.5313 292.75,196.6094 Q292.0625,197.6719 292.0625,199.7656 Q292.0625,201.8594 292.75,202.9375 Q293.4375,204 294.7813,204 Q295.4063,204 296,203.7344 Q296.5938,203.4531 297.2188,202.875 L297.2188,205.5938 Z "/><text fill="#000000" font-family="sans-serif" font-size="12" lengthAdjust="spacingAndGlyphs" textLength="40" x="314.75" y="204.1074">Server</text><line style="stroke: #A80036; stroke-width: 1.5;" x1="217.5" x2="419.5" y1="215.9531" y2="215.9531"/><rect fill="none" height="6" style="stroke: #C82930; stroke-width: 1.0;" width="6" x="224.5" y="223.9531"/><text fill="#000000" font-family="sans-serif" font-size="11" lengthAdjust="spacingAndGlyphs" textLength="55" x="236.5" y="230.1636">port_ : int</text><line style="stroke: #A80036; stroke-width: 1.5;" x1="217.5" x2="419.5" y1="236.7578" y2="236.7578"/><ellipse cx="227.5" cy="247.7578" fill="#84BE84" rx="3" ry="3" style="stroke: #038048; stroke-width: 1.0;"/><text fill="#000000" font-family="sans-serif" font-size="11" lengthAdjust="spacingAndGlyphs" textLength="95" x="236.5" y="250.9683">Server(port : int)</text><ellipse cx="227.5" cy="260.5625" fill="#84BE84" rx="3" ry="3" style="stroke: #038048; stroke-width: 1.0;"/><text fill="#000000" font-family="sans-serif" font-size="11" lengthAdjust="spacingAndGlyphs" textLength="70" x="236.5" y="263.7729">start() : void</text><rect fill="#F24D5C" height="6" style="stroke: #C82930; stroke-width: 1.0;" width="6" x="224.5" y="270.3672"/><text fill="#000000" font-family="sans-serif" font-size="11" lengthAdjust="spacingAndGlyphs" text-decoration="underline" textLength="178" x="236.5" y="276.5776">_handle(...) : enum MHD_Result</text><path d="M6,208.4531 L6,248.7188 A0,0 0 0 0 6,248.7188 L181,248.7188 A0,0 0 0 0 181,248.7188 L181,232.5859 L220.5,259.9648 L181,224.5859 L181,218.4531 L171,208.4531 L6,208.4531 A0,0 0 0 0 6,208.4531 " fill="#FBFB77" filter="url(#f6mxc7ais32ws)" style="stroke: #A80036; stroke-width: 1.0;"/><path d="M171,208.4531 L171,218.4531 L181,218.4531 L171,208.4531 " fill="#FBFB77" style="stroke: #A80036; stroke-width: 1.0;"/><text fill="#000000" font-family="sans-serif" font-size="13" lengthAdjust="spacingAndGlyphs" textLength="154" x="12" y="225.52">start() registers _handle</text><text fill="#000000" font-family="sans-serif" font-size="13" lengthAdjust="spacingAndGlyphs" textLength="153" x="12" y="240.6528">as a microhttpd handler</text><path d="M455.5,208.4531 L455.5,224.5859 L414.5,272.7695 L455.5,232.5859 L455.5,248.7188 A0,0 0 0 0 455.5,248.7188 L661.5,248.7188 A0,0 0 0 0 661.5,248.7188 L661.5,218.4531 L651.5,208.4531 L455.5,208.4531 A0,0 0 0 0 455.5,208.4531 " fill="#FBFB77" filter="url(#f6mxc7ais32ws)" style="stroke: #A80036; stroke-width: 1.0;"/><path d="M651.5,208.4531 L651.5,218.4531 L661.5,218.4531 L651.5,208.4531 " fill="#FBFB77" style="stroke: #A80036; stroke-width: 1.0;"/><text fill="#000000" font-family="sans-serif" font-size="13" lengthAdjust="spacingAndGlyphs" textLength="185" x="461.5" y="225.52">static: _handle implements a</text><text fill="#000000" font-family="sans-serif" font-size="13" lengthAdjust="spacingAndGlyphs" textLength="122" x="461.5" y="240.6528">microhttpd handler</text><!--MD5=[fb0092e0b6444d4a9cc46ebf619bd507]
entity libmicrohttpd--><rect fill="#FEFECE" filter="url(#f6mxc7ais32ws)" height="36.2969" style="stroke: #A80036; stroke-width: 1.5;" width="110" x="263.5" y="28.9531"/><rect fill="#FEFECE" height="5" style="stroke: #A80036; stroke-width: 1.5;" width="10" x="258.5" y="33.9531"/><rect fill="#FEFECE" height="5" style="stroke: #A80036; stroke-width: 1.5;" width="10" x="258.5" y="55.25"/><text fill="#000000" font-family="sans-serif" font-size="14" lengthAdjust="spacingAndGlyphs" textLength="90" x="273.5" y="51.9482">libmicrohttpd</text><!--MD5=[93ae22c264d6fb696a6485860d158e6b]
link Server$$$LEFT to server.Server--><!--MD5=[69129615ac65ad4ba78df9ba13377d05]
link server.Server to Server$$$RIGHT--><!--MD5=[fd632ab71a51126a9206ab54e107b10c]
reverse link libmicrohttpd to server.Server--><path d="M318.5,70.2104 C318.5,98.4766 318.5,146.952 318.5,183.7549 " fill="none" id="libmicrohttpd&lt;-server.Server" style="stroke: #A80036; stroke-width: 1.0; stroke-dasharray: 7.0,7.0;"/><polygon fill="#A80036" points="318.5,65.1751,314.5,74.1751,318.5,70.1751,322.5,74.1751,318.5,65.1751" style="stroke: #A80036; stroke-width: 1.0;"/><path d="M323.5,99.9531 L323.5,139.9531 L556.5,139.9531 L556.5,109.9531 L546.5,99.9531 L323.5,99.9531 " fill="#FBFB77" filter="url(#f6mxc7ais32ws)" style="stroke: #A80036; stroke-width: 1.0;"/><path d="M546.5,99.9531 L546.5,109.9531 L556.5,109.9531 L546.5,99.9531 " fill="#FBFB77" style="stroke: #A80036; stroke-width: 1.0;"/><text fill="#000000" font-family="sans-serif" font-size="13" lengthAdjust="spacingAndGlyphs" textLength="212" x="329.5" y="117.02">Server wraps libmicrohttpd with a</text><text fill="#000000" font-family="sans-serif" font-size="13" lengthAdjust="spacingAndGlyphs" textLength="91" x="329.5" y="132.1528">C++ interface</text><!--MD5=[a1c905cdc8226a3f85966bc3827d2e90]
@startuml

title **Libmicrohttpd wrapper class**

set namespaceSeparator .
allowmixing

class server.Server {
- port_ : int
+ Server(port : int)
+ start() : void
- {static} _handle(...) : enum MHD_Result
}

note left of server.Server::start
     start() registers _handle
     as a microhttpd handler
end note

note right of server.Server::_handle
     static: _handle implements a
     microhttpd handler
end note

component libmicrohttpd
libmicrohttpd <.. server.Server
note on link
     Server wraps libmicrohttpd with a
     C++ interface
end note


@enduml

PlantUML version 1.2020.06(Sun Apr 05 12:38:32 GMT 2020)
(GPL source distribution)
Java Runtime: OpenJDK Runtime Environment
JVM: OpenJDK 64-Bit Server VM
Java Version: 14-ea+33
Operating System: Linux
Default Encoding: UTF-8
Language: en
Country: US
--></g></svg>